<svg width="180" height="36" viewBox="0 0 180 36" fill="#F4F2EF" xmlns="http://www.w3.org/2000/svg">
                <path fill-rule="evenodd" clip-rule="evenodd"
                    d="M148.659 0.0298503C143.253 0.0298503 143.254 0.478115 143.259 6.17891C143.259 6.36236 143.259 6.55126 143.259 6.74575V11.8498C143.259 14.8589 143.16 16.477 143.923 17.3468C144.84 18.3924 147.002 18.3568 152.078 18.3568H172.475C179.973 18.3568 179.968 17.8998 179.922 13.1451C179.918 12.7446 179.914 12.3136 179.914 11.8498V5.67121C179.914 5.25063 179.924 4.85463 179.934 4.48281C180.01 1.45053 180.046 0.0265892 174.275 0H174.065C173.615 0 173.135 0 172.625 0.0298503H148.659ZM172.535 15.4615V15.4317H150.938C150.458 15.4317 150.024 15.4395 149.631 15.4465C146.768 15.4979 146.157 15.5088 146.289 12.1483V5.99955L146.287 5.94422C146.199 2.92121 146.189 2.59682 149.529 2.59682H149.678C150.059 2.59682 150.469 2.60294 150.919 2.60963C151.463 2.61772 152.065 2.62667 152.738 2.62667H174.875C176.716 2.62667 176.712 2.85873 176.682 4.81269C176.676 5.18292 176.67 5.61495 176.675 6.11894V12.7453C176.675 15.1332 176.675 15.4317 174.575 15.4615H172.535Z"
                    fill="#F4F2EF"></path>
                <path
                    d="M0 0.0597005H35.9948V3.10425H2.93958V7.67106H35.8748V10.6559H2.8196V15.163H35.9648V18.2673H0V0.0597005Z"
                    fill="#F4F2EF"></path>
                <path fill-rule="evenodd" clip-rule="evenodd"
                    d="M122.573 0.0489337C123.675 0.0230732 124.658 0 125.502 0C131.782 0 131.773 0.80838 131.745 3.30256C131.743 3.47686 131.741 3.65939 131.741 3.85046V7.10394C131.741 9.58136 130.361 9.7903 130.361 9.7903C131.501 10.4768 131.831 12.3573 131.831 13.79V18.2971H128.562V14.4168C128.562 14.1041 128.564 13.8172 128.567 13.5541C128.591 10.8786 128.593 10.6559 125.562 10.6559H125.382L98.2659 10.7156V18.2673H95.3263V0.0597005H122.112C122.268 0.0560934 122.422 0.0524862 122.573 0.0489337ZM124.662 2.74607C127.872 2.74607 128.801 2.955 128.682 4.62651V6.53682C128.682 7.73076 127.722 7.85015 125.052 7.85015H98.2659V2.77592H120.403C121.239 2.77592 122.004 2.76698 122.697 2.7589C123.272 2.75219 123.796 2.74607 124.272 2.74607H124.662Z"
                    fill="#F4F2EF"></path>
                <path d="M47.6931 0.0298503H83.778V3.13409H67.1603V18.2673H64.1308V3.13409H47.6931V0.0298503Z"
                    fill="#F4F2EF"></path>
                <path
                    d="M7.5458 30.7868H3.91772C3.12699 30.7868 3.08047 30.8178 3.08047 31.2364V33.5156C3.08047 35.1591 3.22002 35.1901 3.94873 35.2831L4.41387 35.3451C4.5224 35.4536 4.5069 35.7327 4.38286 35.7947C3.57662 35.7637 2.87891 35.7482 2.19671 35.7482C1.51451 35.7482 0.816801 35.7637 0.227625 35.7947C0.103588 35.7327 0.0880837 35.4536 0.196616 35.3451L0.413681 35.3141C1.1424 35.2056 1.28194 35.1591 1.28194 33.5156V27.7479C1.28194 26.1044 1.1424 26.0578 0.413681 25.9648L0.0725791 25.9183C-0.0359532 25.8408 -0.0204487 25.5307 0.103588 25.4687C0.785791 25.4997 1.51451 25.5152 2.19671 25.5152C2.87891 25.5152 3.57662 25.4997 4.1813 25.4687C4.30534 25.5307 4.32084 25.8408 4.21231 25.9183L3.94873 25.9648C3.22002 26.0889 3.08047 26.1044 3.08047 27.7479V29.6239C3.08047 30.058 3.12699 30.0891 3.91772 30.0891H7.5458C8.33654 30.0891 8.38305 30.058 8.38305 29.6239V27.7479C8.38305 26.1044 8.24351 26.0578 7.5148 25.9648L7.17369 25.9183C7.06516 25.8408 7.08067 25.5307 7.2047 25.4687C7.91792 25.4997 8.61562 25.5152 9.29783 25.5152C9.98003 25.5152 10.6777 25.4997 11.2979 25.4687C11.422 25.5307 11.4375 25.8408 11.3289 25.9183L11.0498 25.9648C10.3211 26.0889 10.1816 26.1044 10.1816 27.7479V33.5156C10.1816 35.1591 10.3211 35.2056 11.0498 35.2986L11.3909 35.3451C11.4995 35.4536 11.484 35.7327 11.3599 35.7947C10.6777 35.7637 9.98003 35.7482 9.29783 35.7482C8.58461 35.7482 7.88691 35.7637 7.2047 35.7947C7.08067 35.7327 7.06516 35.4536 7.17369 35.3451L7.5148 35.2986C8.24351 35.2056 8.38305 35.1591 8.38305 33.5156V31.2364C8.38305 30.8178 8.33654 30.7868 7.5458 30.7868Z"
                    fill="#F4F2EF"></path>
                <path
                    d="M24.1128 25.2671C27.6944 25.2671 29.5395 27.8409 29.5395 30.6627C29.5395 33.7171 27.2138 35.9963 24.0818 35.9963C20.5778 35.9963 18.5622 33.5311 18.5622 30.7713C18.5622 27.6083 20.8569 25.2671 24.1128 25.2671ZM23.9113 25.8873C22.3608 25.8873 20.6708 27.0191 20.6708 30.3216C20.6708 32.4613 21.5856 35.3761 24.2369 35.3761C26.0044 35.3761 27.4308 34.0582 27.4308 30.9418C27.4308 28.6006 26.3765 25.8873 23.9113 25.8873Z"
                    fill="#F4F2EF"></path>
                <path
                    d="M49.2147 35.2676L49.6643 35.3451C49.8194 35.4071 49.8039 35.7327 49.6333 35.7947C48.9666 35.7637 48.3619 35.7482 47.7418 35.7482C47.013 35.7482 46.3463 35.7637 45.6641 35.7947C45.5401 35.7327 45.4781 35.4381 45.6331 35.3451L46.0518 35.2676C46.6719 35.1591 46.7185 35.0505 46.7185 33.9962V27.6548H46.6874C46.2688 28.5076 46.0518 28.9727 45.7572 29.5929L44.4238 32.3217C43.8966 33.407 43.1214 35.1281 42.8423 35.8568C42.7803 35.9188 42.5477 35.9188 42.4392 35.8568C42.1756 35.0195 41.5089 33.5001 41.1523 32.7248L39.8189 29.7479C39.5243 29.0968 39.0747 28.0734 38.8886 27.6083H38.8576L38.7491 30.2751C38.7181 31.2209 38.6561 32.6008 38.6561 33.8722C38.6561 34.8955 38.6716 35.1281 39.3383 35.2521L39.8499 35.3451C39.9584 35.4381 39.9584 35.7327 39.8344 35.7947C39.2607 35.7637 38.7801 35.7482 38.2064 35.7482C37.7103 35.7482 37.1831 35.7637 36.5784 35.7947C36.4389 35.7172 36.4389 35.4226 36.5319 35.3451L36.7955 35.3141C37.5397 35.2211 37.6638 34.9885 37.7723 34.0427C37.8808 33.0659 37.9583 32.0581 38.0359 30.4457C38.0979 29.3913 38.1909 28.1045 38.1909 27.1587C38.1909 26.43 37.9583 26.1199 37.3537 26.0113L36.8265 25.9183C36.7335 25.8098 36.749 25.5152 36.8885 25.4687C37.3537 25.4997 37.7723 25.5152 38.346 25.5152C38.8886 25.5152 39.4313 25.5152 40.005 25.4687C40.067 26.399 40.4546 27.2052 40.8577 28.0424L42.5167 31.624C42.6407 31.8876 43.0594 32.7713 43.2609 33.128C43.509 32.6783 43.7726 32.1357 44.1292 31.4069L45.5711 28.4301C46.0673 27.4068 46.5634 26.492 46.827 25.4687C47.2456 25.4997 47.6952 25.5152 48.0364 25.5152C48.6875 25.5152 49.2302 25.4997 49.6643 25.4687C49.8349 25.5307 49.8659 25.8253 49.7108 25.9183L49.1992 25.9958C48.517 26.1044 48.3619 26.3524 48.3619 27.1742C48.3619 29.4689 48.393 31.7635 48.5015 34.0582C48.548 35.097 48.7186 35.1901 49.2147 35.2676Z"
                    fill="#F4F2EF"></path>
                <path
                    d="M58.0973 33.5156V27.7479C58.0973 26.1044 57.9577 26.0423 57.229 25.9493L56.9809 25.9183C56.8724 25.8098 56.8879 25.5307 57.0119 25.4687C57.6011 25.4997 58.3298 25.5152 59.012 25.5152H61.9734C62.9657 25.5152 63.865 25.4997 64.0665 25.4687C64.1286 25.7323 64.2216 26.9571 64.3146 27.6238C64.2526 27.7479 63.9425 27.7789 63.8185 27.6858C63.5704 26.7866 63.3378 26.4145 62.8417 26.2749C62.4851 26.1819 62.0199 26.1354 61.6013 26.1354H60.5625C59.8958 26.1354 59.8958 26.1664 59.8958 27.0501V29.6704C59.8958 30.0735 59.9113 30.0891 60.2679 30.0891H61.0121C62.361 30.0891 62.5936 30.0735 62.7332 29.4068L62.8417 28.8797C62.9657 28.7712 63.2603 28.7712 63.3378 28.8952C63.3223 29.3138 63.2913 29.872 63.2913 30.4457C63.2913 31.0348 63.3223 31.5775 63.3378 32.0736C63.2603 32.1822 62.9657 32.1822 62.8417 32.0891L62.7332 31.469C62.6246 30.8178 62.361 30.7868 61.0121 30.7868H60.2679C59.9113 30.7868 59.8958 30.8178 59.8958 31.2054V33.1745C59.8958 33.9652 59.9268 34.5234 60.1594 34.787C60.3454 35.004 60.609 35.1125 61.9114 35.1281C63.8805 35.1436 64.2216 34.7094 64.7643 33.4536C64.9038 33.345 65.1674 33.3915 65.2604 33.5466C65.1674 34.1978 64.8263 35.3761 64.6092 35.7947C63.927 35.7637 62.5936 35.7482 60.7796 35.7482H59.012C58.3298 35.7482 57.3841 35.7637 56.6863 35.7947C56.5623 35.7327 56.5468 35.4536 56.6553 35.3451L57.229 35.2831C57.9577 35.2056 58.0973 35.1591 58.0973 33.5156Z"
                    fill="#F4F2EF"></path>
                <path
                    d="M85.8246 33.5156V26.8176C85.8246 26.1664 85.8091 26.1354 85.406 26.1354H84.5377C83.1113 26.1354 82.6927 26.3059 82.119 27.5618C82.0105 27.6548 81.6849 27.6083 81.6229 27.4533C81.8864 26.616 82.119 25.6547 82.2275 25.1121C82.2585 25.0656 82.3206 25.05 82.3981 25.05C82.4601 25.05 82.5221 25.0656 82.5531 25.1121C82.6307 25.4997 82.8477 25.5152 83.902 25.5152H90.2279C90.9876 25.5152 91.2202 25.4687 91.4063 25.1121C91.4683 25.0811 91.5303 25.05 91.5923 25.05C91.6853 25.05 91.7629 25.0811 91.7939 25.1276C91.6388 25.7633 91.5148 27.0967 91.5613 27.5928C91.4838 27.7168 91.2202 27.7479 91.0807 27.6393C90.8791 26.43 90.5845 26.1354 88.9255 26.1354H88.0418C87.6386 26.1354 87.6231 26.1664 87.6231 26.8176V33.5156C87.6231 35.1591 87.7627 35.2056 88.4914 35.2831L89.0496 35.3451C89.1581 35.4536 89.1426 35.7327 89.0186 35.7947C88.1193 35.7637 87.4216 35.7482 86.7394 35.7482C86.0572 35.7482 85.3285 35.7637 84.3362 35.7947C84.2121 35.7327 84.1966 35.4226 84.3052 35.3451L84.9564 35.2676C85.6851 35.1746 85.8246 35.1591 85.8246 33.5156Z"
                    fill="#F4F2EF"></path>
                <path
                    d="M99.6957 33.5156V27.7479C99.6957 26.1044 99.5561 26.0423 98.8274 25.9493L98.5793 25.9183C98.4708 25.8098 98.4863 25.5307 98.6103 25.4687C99.1995 25.4997 99.9282 25.5152 100.61 25.5152H103.572C104.564 25.5152 105.463 25.4997 105.665 25.4687C105.727 25.7323 105.82 26.9571 105.913 27.6238C105.851 27.7479 105.541 27.7789 105.417 27.6858C105.169 26.7866 104.936 26.4145 104.44 26.2749C104.083 26.1819 103.618 26.1354 103.2 26.1354H102.161C101.494 26.1354 101.494 26.1664 101.494 27.0501V29.6704C101.494 30.0735 101.51 30.0891 101.866 30.0891H102.611C103.959 30.0891 104.192 30.0735 104.332 29.4068L104.44 28.8797C104.564 28.7712 104.859 28.7712 104.936 28.8952C104.921 29.3138 104.89 29.872 104.89 30.4457C104.89 31.0348 104.921 31.5775 104.936 32.0736C104.859 32.1822 104.564 32.1822 104.44 32.0891L104.332 31.469C104.223 30.8178 103.959 30.7868 102.611 30.7868H101.866C101.51 30.7868 101.494 30.8178 101.494 31.2054V33.1745C101.494 33.9652 101.525 34.5234 101.758 34.787C101.944 35.004 102.207 35.1125 103.51 35.1281C105.479 35.1436 105.82 34.7094 106.363 33.4536C106.502 33.345 106.766 33.3915 106.859 33.5466C106.766 34.1978 106.425 35.3761 106.208 35.7947C105.525 35.7637 104.192 35.7482 102.378 35.7482H100.61C99.9282 35.7482 98.9825 35.7637 98.2847 35.7947C98.1607 35.7327 98.1452 35.4536 98.2537 35.3451L98.8274 35.2831C99.5561 35.2056 99.6957 35.1591 99.6957 33.5156Z"
                    fill="#F4F2EF"></path>
                <path
                    d="M113.186 26.0268L112.69 25.9183C112.566 25.7943 112.597 25.5307 112.736 25.4687C113.434 25.4997 114.039 25.5152 114.752 25.5152C115.574 25.5152 116.256 25.4997 116.69 25.4687C116.829 25.5307 116.829 25.8098 116.721 25.9183L116.426 25.9493C116.116 25.9803 115.915 26.0423 115.915 26.1509C115.915 26.2749 115.992 26.4455 116.302 26.9261C116.69 27.5153 117.775 29.1433 118.116 29.5774C118.488 29.1433 119.868 27.1277 120.225 26.6005C120.349 26.4145 120.411 26.2904 120.427 26.1974C120.396 26.0889 120.209 26.0578 119.961 25.9958L119.512 25.9183C119.372 25.8098 119.372 25.5617 119.543 25.4687C120.147 25.4997 120.644 25.5152 121.171 25.5152C121.698 25.5152 122.117 25.4997 122.675 25.4687C122.814 25.5462 122.83 25.7788 122.721 25.9183L122.272 26.0113C121.651 26.1354 121.403 26.3679 120.721 27.2052C120.116 27.9494 119.388 28.8487 118.814 29.7169C118.644 29.965 118.581 30.1046 118.581 30.1666C118.581 30.2441 118.644 30.3991 118.845 30.7092C119.775 32.0581 120.737 33.4846 121.45 34.4148C121.884 35.004 122.225 35.1901 122.83 35.2831L123.217 35.3451C123.326 35.4381 123.326 35.7172 123.186 35.7947C122.442 35.7637 121.775 35.7482 121 35.7482C120.24 35.7482 119.574 35.7637 118.799 35.7947C118.675 35.7327 118.628 35.4381 118.768 35.3451L119.326 35.2366C119.527 35.1901 119.651 35.1436 119.651 35.035C119.651 34.9265 119.543 34.6939 119.202 34.1823L118.938 33.7947C118.55 33.2365 118.039 32.4613 117.388 31.5465C116.752 32.3837 115.853 33.7016 115.264 34.6474C115.124 34.8645 115.062 34.9885 115.062 35.097C115.062 35.2056 115.31 35.2521 115.527 35.2831L115.93 35.3451C116.054 35.4536 116.039 35.7482 115.899 35.7947C115.372 35.7637 114.736 35.7482 114.101 35.7482C113.574 35.7482 113.062 35.7637 112.566 35.7947C112.426 35.6862 112.426 35.4692 112.504 35.3451L112.922 35.2676C113.589 35.1436 113.946 34.942 114.55 34.1823L116.705 31.4069C116.845 31.2209 116.938 31.0348 116.938 30.9573C116.938 30.8798 116.892 30.7247 116.752 30.5232C116.023 29.4844 115.031 27.9184 114.442 27.0812C113.977 26.4145 113.667 26.1354 113.186 26.0268Z"
                    fill="#F4F2EF"></path>
                <path
                    d="M133.025 33.5156V26.8176C133.025 26.1664 133.01 26.1354 132.607 26.1354H131.738C130.312 26.1354 129.893 26.3059 129.32 27.5618C129.211 27.6548 128.886 27.6083 128.824 27.4533C129.087 26.616 129.32 25.6547 129.428 25.1121C129.459 25.0656 129.521 25.05 129.599 25.05C129.661 25.05 129.723 25.0656 129.754 25.1121C129.831 25.4997 130.048 25.5152 131.103 25.5152H137.429C138.188 25.5152 138.421 25.4687 138.607 25.1121C138.669 25.0811 138.731 25.05 138.793 25.05C138.886 25.05 138.964 25.0811 138.995 25.1276C138.84 25.7633 138.715 27.0967 138.762 27.5928C138.684 27.7168 138.421 27.7479 138.281 27.6393C138.08 26.43 137.785 26.1354 136.126 26.1354H135.242C134.839 26.1354 134.824 26.1664 134.824 26.8176V33.5156C134.824 35.1591 134.963 35.2056 135.692 35.2831L136.25 35.3451C136.359 35.4536 136.343 35.7327 136.219 35.7947C135.32 35.7637 134.622 35.7482 133.94 35.7482C133.258 35.7482 132.529 35.7637 131.537 35.7947C131.413 35.7327 131.397 35.4226 131.506 35.3451L132.157 35.2676C132.886 35.1746 133.025 35.1591 133.025 33.5156Z"
                    fill="#F4F2EF"></path>
                <path
                    d="M148.695 27.7479V33.5156C148.695 35.1591 148.834 35.2056 149.563 35.2986L149.904 35.3451C150.013 35.4536 149.997 35.7327 149.873 35.7947C149.191 35.7637 148.493 35.7482 147.811 35.7482C147.129 35.7482 146.4 35.7637 145.718 35.7947C145.594 35.7327 145.578 35.4536 145.687 35.3451L146.028 35.2986C146.757 35.2056 146.896 35.1591 146.896 33.5156V27.7479C146.896 26.1044 146.757 26.0578 146.028 25.9648L145.687 25.9183C145.578 25.8098 145.594 25.5307 145.718 25.4687C146.4 25.4997 147.098 25.5152 147.811 25.5152C148.493 25.5152 149.191 25.4997 149.873 25.4687C149.997 25.5307 150.013 25.8098 149.904 25.9183L149.563 25.9648C148.834 26.0578 148.695 26.1044 148.695 27.7479Z"
                    fill="#F4F2EF"></path>
                <path
                    d="M160.068 27.7479V33.19C160.068 33.9652 160.099 34.5234 160.331 34.787C160.517 35.004 160.765 35.1281 162.006 35.1281C163.727 35.1281 163.975 35.0505 164.688 33.4536C164.843 33.376 165.091 33.4225 165.169 33.5466C165.045 34.1978 164.704 35.3761 164.518 35.7947C163.866 35.7637 162.533 35.7482 160.796 35.7482H159.184C158.393 35.7482 157.618 35.7637 156.967 35.7947C156.843 35.7327 156.796 35.4226 156.936 35.3451L157.401 35.2676C158.13 35.1436 158.269 35.1281 158.269 33.5156V27.7479C158.269 26.1354 158.13 26.0889 157.401 25.9803L156.967 25.9183C156.858 25.8408 156.858 25.5307 156.998 25.4687C157.773 25.4997 158.471 25.5152 159.184 25.5152C159.866 25.5152 160.564 25.4997 161.246 25.4687C161.386 25.5307 161.401 25.8408 161.277 25.9183L160.936 25.9803C160.207 26.1044 160.068 26.1354 160.068 27.7479Z"
                    fill="#F4F2EF"></path>
                <path
                    d="M172.837 33.5156V27.7479C172.837 26.1044 172.697 26.0423 171.969 25.9493L171.721 25.9183C171.612 25.8098 171.628 25.5307 171.752 25.4687C172.341 25.4997 173.069 25.5152 173.752 25.5152H176.713C177.705 25.5152 178.605 25.4997 178.806 25.4687C178.868 25.7323 178.961 26.9571 179.054 27.6238C178.992 27.7479 178.682 27.7789 178.558 27.6858C178.31 26.7866 178.077 26.4145 177.581 26.2749C177.225 26.1819 176.76 26.1354 176.341 26.1354H175.302C174.635 26.1354 174.635 26.1664 174.635 27.0501V29.6704C174.635 30.0735 174.651 30.0891 175.008 30.0891H175.752C177.101 30.0891 177.333 30.0735 177.473 29.4068L177.581 28.8797C177.705 28.7712 178 28.7712 178.077 28.8952C178.062 29.3138 178.031 29.872 178.031 30.4457C178.031 31.0348 178.062 31.5775 178.077 32.0736C178 32.1822 177.705 32.1822 177.581 32.0891L177.473 31.469C177.364 30.8178 177.101 30.7868 175.752 30.7868H175.008C174.651 30.7868 174.635 30.8178 174.635 31.2054V33.1745C174.635 33.9652 174.666 34.5234 174.899 34.787C175.085 35.004 175.349 35.1125 176.651 35.1281C178.62 35.1436 178.961 34.7094 179.504 33.4536C179.643 33.345 179.907 33.3915 180 33.5466C179.907 34.1978 179.566 35.3761 179.349 35.7947C178.667 35.7637 177.333 35.7482 175.519 35.7482H173.752C173.069 35.7482 172.124 35.7637 171.426 35.7947C171.302 35.7327 171.286 35.4536 171.395 35.3451L171.969 35.2831C172.697 35.2056 172.837 35.1591 172.837 33.5156Z"
                    fill="#F4F2EF"></path>
            </svg>